PathFileType	4	(X/Y/Z)	C:/Users/opensim2020/Desktop/walking_exp_matlab/subject02_walking12_straight_04.trc																																																																																																																												
DataRate	CameraRate	NumFrames	NumMarkers	Units	OrigDataRate	OrigDataStartFrame	OrigNumFrames																																																																																																																								
100	100	5	42	mm	100	2055	125																																																																																																																								
Frame#	Time	LFHD			RFHD			LBHD			RBHD			C7			T10			CLAV			STRN			RBAK			LSHO			LUPA			LELB			LFRM			LWRA			LWRB			LFIN			RSHO			RUPA			RELB			RFRM			RWRA			RWRB			RFIN			LASI			RASI			LPSI			RPSI			LTHI			LKNE			LTIB			LANK			LHEE			LTOE			RTHI			RKNE			RTIB			RANK			RHEE			RTOE			*39			*40			*41		
		X1	Y1	Z1	X2	Y2	Z2	X3	Y3	Z3	X4	Y4	Z4	X5	Y5	Z5	X6	Y6	Z6	X7	Y7	Z7	X8	Y8	Z8	X9	Y9	Z9	X10	Y10	Z10	X11	Y11	Z11	X12	Y12	Z12	X13	Y13	Z13	X14	Y14	Z14	X15	Y15	Z15	X16	Y16	Z16	X17	Y17	Z17	X18	Y18	Z18	X19	Y19	Z19	X20	Y20	Z20	X21	Y21	Z21	X22	Y22	Z22	X23	Y23	Z23	X24	Y24	Z24	X25	Y25	Z25	X26	Y26	Z26	X27	Y27	Z27	X28	Y28	Z28	X29	Y29	Z29	X30	Y30	Z30	X31	Y31	Z31	X32	Y32	Z32	X33	Y33	Z33	X34	Y34	Z34	X35	Y35	Z35	X36	Y36	Z36	X37	Y37	Z37	X38	Y38	Z38	X39	Y39	Z39	X40	Y40	Z40	X41	Y41	Z41	X42	Y42	Z42
																																																																																																																															
63	0.62	80.27087	1731.32385	-1473.3761	66.99659	1710.46216	-1331.30505	-43.9118	1649.1156	-1494.92725	-69.22861	1626.99744	-1355.29407	-101.34604	1509.98743	-1418.10046	-151.76614	1233.84607	-1414.5874	36.93605	1442.27295	-1437.40466	91.89007	1271.18079	-1426.88879	-152.97757	1336.14429	-1348.38281	-45.74216	1481.31738	-1601.89294	-102.51427	1285.46545	-1672.34692	-132.89587	1148.53088	-1676.08179	-160.13672	1020.28992	-1689.00928	-142.21458	881.89313	-1656.84985	-184.15314	898.41809	-1692.04834	-189.57713	830.5354	-1689.50671	-13.74903	1480.1239	-1240.46448	0.44531	1296.87292	-1143.02856	54.38324	1157.54565	-1117.65039	135.37682	1064.89636	-1117.15991	229.77422	978.00995	-1159.04126	198.72456	951.85291	-1118.96777	261.92197	917.40607	-1129.56274	82.79863	973.45508	-1548.41174	67.36543	955.83911	-1290.2627	-130.75645	1017.30597	-1476.72156	-142.60222	1017.22351	-1364.52026	77.15353	675.67438	-1629.72913	125.90665	482.65149	-1608.62427	148.29312	290.7276	-1621.07813	250.04909	85.73181	-1614.44531	235.06709	45.30831	-1561.39111	404.46033	107.68256	-1634.29272	-66.67633	656.5921	-1243.77087	-117.94144	453.10098	-1293.85291	-202.87265	284.3884	-1288.93835	-264.68469	99.92393	-1330.36877	-309.45828	48.86741	-1385.15698	-120.07514	36.5794	-1317.86072	-33.8864	1789.60291	-1393.29529	-2845.85229	1034.23572	3357.17065	NaN	NaN	NaN
64	0.63	94.75373	1728.28589	-1474.88464	81.07378	1707.59265	-1333.02002	-29.74826	1646.3811	-1496.81958	-55.65863	1624.26184	-1357.32935	-87.50345	1507.13208	-1420.21973	-137.91148	1230.96008	-1417.38416	50.8165	1439.33508	-1439.1582	105.73444	1268.4563	-1428.42578	-138.9955	1333.03784	-1350.74939	-31.55589	1478.34009	-1603.90332	-90.99739	1282.67688	-1672.63354	-123.47344	1146.72607	-1674.97083	-155.44617	1020.39771	-1688.40796	-143.38884	880.7558	-1656.53174	-184.32686	899.42688	-1691.82617	-193.51587	831.8725	-1689.09753	-0.48911	1477.4834	-1242.42273	15.12059	1294.90857	-1144.6394	70.54573	1156.25879	-1118.10706	154.464	1065.78772	-1118.01636	251.15891	981.84418	-1160.2179	220.94792	954.51434	-1120.33154	285.1001	922.22858	-1131.04749	98.07626	970.8056	-1549.76111	80.50809	953.69824	-1291.48621	-116.34468	1013.90491	-1479.59106	-129.13326	1013.82196	-1367.8678	90.37996	672.83331	-1632.63025	142.19875	480.31067	-1610.58911	170.56061	290.15259	-1625.19617	279.24039	87.45095	-1618.17664	263.54834	46.38161	-1566.03455	433.54022	113.20477	-1633.28772	-57.99584	655.56317	-1244.78479	-111.4796	452.55655	-1294.57898	-199.29283	285.35492	-1289.9845	-263.58234	101.49363	-1331.24133	-308.49911	50.90424	-1386.53711	-119.86558	36.55351	-1317.70288	-19.6016	1786.84875	-1395.15869	-2845.17236	1034.19238	3360.38208	NaN	NaN	NaN
65	0.64	108.93863	1725.3269	-1476.74377	95.10547	1704.64075	-1334.54919	-15.52592	1643.76501	-1498.78174	-41.40222	1621.84338	-1359.16663	-73.9345	1504.39026	-1422.34875	-123.90895	1228.15137	-1420.06067	64.80141	1436.64233	-1441.09937	119.62354	1265.81799	-1430.25415	-125.26981	1329.93408	-1353.31946	-17.31142	1475.50195	-1605.94116	-79.58375	1280.38611	-1673.73389	-113.54017	1144.88708	-1673.90637	-150.13423	1020.49695	-1687.9585	-143.8084	880.11414	-1656.3324	-183.46838	900.77411	-1691.7572	-196.27684	833.659	-1688.81128	12.67654	1474.76563	-1244.33557	28.97209	1292.67761	-1146.39758	86.73103	1154.62195	-1118.75793	172.68848	1066.56116	-1119.16028	272.80948	985.73712	-1161.11145	242.40668	957.1026	-1121.75305	307.37659	926.78931	-1132.27283	113.41267	968.4502	-1550.96045	93.71555	951.34552	-1292.71277	-101.65926	1010.72253	-1482.58447	-115.34583	1010.64398	-1371.31628	104.63982	670.08545	-1635.32178	159.24164	478.48709	-1612.8512	191.54716	289.25595	-1628.50281	304.04636	88.92389	-1621.70398	288.15686	46.66511	-1570.05725	458.70822	116.52074	-1632.31128	-48.98081	654.71436	-1246.07544	-104.30472	452.16525	-1295.28333	-195.62404	286.40515	-1291.20813	-262.35944	103.59304	-1331.99377	-307.61612	53.49165	-1387.43652	-119.64528	36.40578	-1317.43713	-5.28261	1784.26758	-1397.16052	-2845.14551	1034.21301	3360.38452	NaN	NaN	NaN
66	0.65	123.40762	1722.72656	-1478.61755	109.19656	1702.00598	-1336.54736	-1.27991	1641.28528	-1500.79089	-27.48865	1619.38818	-1361.28137	-59.97218	1501.74951	-1424.54529	-109.8343	1225.40259	-1422.68018	78.68914	1433.97607	-1443.11707	133.64336	1263.35608	-1432.25354	-111.55293	1327.10889	-1356.02283	-3.18194	1472.87427	-1608.12012	-67.77863	1278.15076	-1674.88855	-103.61151	1143.4668	-1673.50037	-144.14256	1020.82404	-1687.68445	-142.71303	880.02972	-1656.39795	-181.59959	902.34149	-1691.83801	-197.93324	835.9574	-1688.53369	25.97914	1472.05347	-1246.28943	42.28414	1290.29846	-1148.03333	102.23578	1153.24158	-1119.82983	190.28127	1067.10315	-1120.18176	292.86896	989.37592	-1162.10449	263.39429	959.71301	-1123.36133	328.78787	931.39258	-1133.49475	128.83301	966.40173	-1552.10327	107.18661	948.98682	-1294.00781	-87.13964	1007.98712	-1485.74817	-101.28632	1007.6853	-1374.78052	120.90652	667.8941	-1637.26831	177.8651	477.12936	-1615.21594	211.00294	288.21515	-1631.36267	324.91064	88.66472	-1623.9939	308.81528	45.47171	-1572.88501	479.65833	117.42445	-1631.90613	-39.37503	654.37109	-1247.9917	-96.13766	451.62387	-1295.84448	-190.90718	287.71194	-1292.10657	-260.96152	106.11331	-1332.31116	-306.78714	56.77644	-1387.81812	-119.43192	36.31189	-1317.20947	9.08923	1781.70142	-1399.04797	-2845.86646	1034.30713	3357.35547	NaN	NaN	NaN
67	0.66	137.97626	1720.03174	-1480.08569	123.27731	1699.104	-1338.09729	13.00944	1638.97961	-1502.90076	-13.72728	1616.89124	-1363.46667	-46.17011	1499.27795	-1426.75037	-95.22015	1222.55945	-1424.97864	92.62032	1431.46191	-1445.29199	147.78644	1261.13293	-1434.44946	-97.88223	1324.46704	-1358.97034	10.85705	1470.43469	-1610.38025	-55.81799	1276.10938	-1676.37195	-93.6314	1142.44238	-1673.77722	-137.45146	1021.30682	-1687.7533	-140.56967	880.19513	-1656.6405	-178.61548	904.05127	-1692.13635	-198.15877	838.36554	-1688.38232	39.03332	1469.48645	-1248.51013	56.00624	1287.71484	-1149.96313	117.24129	1151.50085	-1120.93237	207.71208	1067.60974	-1121.27551	312.11606	992.81525	-1163.10461	283.05652	962.02295	-1124.64111	349.65796	935.85944	-1134.42688	144.51227	964.67389	-1553.35193	120.59016	946.38397	-1295.10925	-73.29062	1005.85706	-1488.9762	-86.90238	1004.89111	-1378.48657	140.41614	666.72858	-1638.66016	197.36086	476.26147	-1617.35791	229.25352	286.98029	-1634.07861	341.90027	87.0589	-1625.65601	325.06152	43.73548	-1575.00745	496.78317	115.34509	-1631.8595	-29.4682	653.68915	-1249.54089	-87.05301	451.03973	-1296.15613	-185.50627	289.18692	-1292.61682	-259.23892	108.88294	-1332.14038	-305.7421	60.64281	-1387.75769	-119.1357	36.22337	-1316.92822	23.55332	1779.22864	-1400.98914	-2845.88892	1034.3291	3357.36377	NaN	NaN	NaN
